<mxfile host="app.diagrams.net" agent="Mozilla/5.0 (X11; Linux x86_64) AppleWebKit/537.36 (KHTML, like Gecko) Chrome/137.0.0.0 Safari/537.36" version="27.1.6">
  <diagram name="Page-1" id="WLIHEwgMQWzSAVIr-yDW">
    <mxGraphModel dx="1426" dy="791" grid="1" gridSize="10" guides="1" tooltips="1" connect="1" arrows="1" fold="1" page="1" pageScale="1" pageWidth="850" pageHeight="1100" math="0" shadow="0">
      <root>
        <mxCell id="0" />
        <mxCell id="1" parent="0" />
        <mxCell id="roTiI-cVfTf1T6BizycE-1" value="" style="rounded=0;whiteSpace=wrap;html=1;" vertex="1" parent="1">
          <mxGeometry x="40" y="120" width="90" height="200" as="geometry" />
        </mxCell>
        <mxCell id="roTiI-cVfTf1T6BizycE-2" value="" style="rounded=0;whiteSpace=wrap;html=1;" vertex="1" parent="1">
          <mxGeometry x="160" y="120" width="100" height="200" as="geometry" />
        </mxCell>
        <mxCell id="roTiI-cVfTf1T6BizycE-3" value="" style="rounded=0;whiteSpace=wrap;html=1;" vertex="1" parent="1">
          <mxGeometry x="300" y="120" width="350" height="200" as="geometry" />
        </mxCell>
        <mxCell id="roTiI-cVfTf1T6BizycE-4" value="" style="rounded=0;whiteSpace=wrap;html=1;" vertex="1" parent="1">
          <mxGeometry x="670" y="120" width="100" height="200" as="geometry" />
        </mxCell>
        <mxCell id="roTiI-cVfTf1T6BizycE-5" value="" style="sketch=0;outlineConnect=0;fontColor=#232F3E;gradientColor=none;fillColor=#7AA116;strokeColor=none;dashed=0;verticalLabelPosition=bottom;verticalAlign=top;align=center;html=1;fontSize=12;fontStyle=0;aspect=fixed;pointerEvents=1;shape=mxgraph.aws4.bucket_with_objects;" vertex="1" parent="1">
          <mxGeometry x="60" y="190" width="42.5" height="44.2" as="geometry" />
        </mxCell>
        <mxCell id="roTiI-cVfTf1T6BizycE-6" value="" style="sketch=0;points=[[0,0,0],[0.25,0,0],[0.5,0,0],[0.75,0,0],[1,0,0],[0,1,0],[0.25,1,0],[0.5,1,0],[0.75,1,0],[1,1,0],[0,0.25,0],[0,0.5,0],[0,0.75,0],[1,0.25,0],[1,0.5,0],[1,0.75,0]];outlineConnect=0;fontColor=#232F3E;fillColor=#E7157B;strokeColor=#ffffff;dashed=0;verticalLabelPosition=bottom;verticalAlign=top;align=center;html=1;fontSize=12;fontStyle=0;aspect=fixed;shape=mxgraph.aws4.resourceIcon;resIcon=mxgraph.aws4.sqs;" vertex="1" parent="1">
          <mxGeometry x="180.5" y="190.5" width="59" height="59" as="geometry" />
        </mxCell>
        <mxCell id="roTiI-cVfTf1T6BizycE-7" value="" style="group" vertex="1" connectable="0" parent="1">
          <mxGeometry x="320" y="140" width="310" height="170" as="geometry" />
        </mxCell>
        <mxCell id="roTiI-cVfTf1T6BizycE-8" value="" style="rounded=0;whiteSpace=wrap;html=1;" vertex="1" parent="roTiI-cVfTf1T6BizycE-7">
          <mxGeometry width="310" height="166.15760537568724" as="geometry" />
        </mxCell>
        <mxCell id="roTiI-cVfTf1T6BizycE-9" value="" style="sketch=0;points=[[0,0,0],[0.25,0,0],[0.5,0,0],[0.75,0,0],[1,0,0],[0,1,0],[0.25,1,0],[0.5,1,0],[0.75,1,0],[1,1,0],[0,0.25,0],[0,0.5,0],[0,0.75,0],[1,0.25,0],[1,0.5,0],[1,0.75,0]];outlineConnect=0;fontColor=#232F3E;fillColor=#E7157B;strokeColor=#ffffff;dashed=0;verticalLabelPosition=bottom;verticalAlign=top;align=center;html=1;fontSize=12;fontStyle=0;aspect=fixed;shape=mxgraph.aws4.resourceIcon;resIcon=mxgraph.aws4.managed_workflows_for_apache_airflow;" vertex="1" parent="roTiI-cVfTf1T6BizycE-7">
          <mxGeometry width="30" height="30" as="geometry" />
        </mxCell>
        <mxCell id="roTiI-cVfTf1T6BizycE-10" value="AWS Glue" style="sketch=0;outlineConnect=0;fontColor=#232F3E;gradientColor=none;strokeColor=#ffffff;fillColor=#232F3E;dashed=0;verticalLabelPosition=middle;verticalAlign=bottom;align=center;html=1;whiteSpace=wrap;fontSize=10;fontStyle=1;spacing=3;shape=mxgraph.aws4.productIcon;prIcon=mxgraph.aws4.glue;" vertex="1" parent="roTiI-cVfTf1T6BizycE-7">
          <mxGeometry x="32.068965517241374" y="41.53940134392181" width="42.75862068965517" height="72.69395235186317" as="geometry" />
        </mxCell>
        <mxCell id="roTiI-cVfTf1T6BizycE-11" value="AWS Glue" style="sketch=0;outlineConnect=0;fontColor=#232F3E;gradientColor=none;strokeColor=#ffffff;fillColor=#232F3E;dashed=0;verticalLabelPosition=middle;verticalAlign=bottom;align=center;html=1;whiteSpace=wrap;fontSize=10;fontStyle=1;spacing=3;shape=mxgraph.aws4.productIcon;prIcon=mxgraph.aws4.glue;" vertex="1" parent="roTiI-cVfTf1T6BizycE-7">
          <mxGeometry x="157.67241379310343" y="31.15455100794136" width="42.75862068965517" height="72.69395235186317" as="geometry" />
        </mxCell>
        <mxCell id="roTiI-cVfTf1T6BizycE-12" value="" style="sketch=0;outlineConnect=0;fontColor=#232F3E;gradientColor=none;fillColor=#7AA116;strokeColor=none;dashed=0;verticalLabelPosition=bottom;verticalAlign=top;align=center;html=1;fontSize=12;fontStyle=0;aspect=fixed;pointerEvents=1;shape=mxgraph.aws4.bucket_with_objects;" vertex="1" parent="roTiI-cVfTf1T6BizycE-7">
          <mxGeometry x="89.79" y="103.85" width="34.76" height="36.15" as="geometry" />
        </mxCell>
        <mxCell id="roTiI-cVfTf1T6BizycE-13" value="" style="edgeStyle=orthogonalEdgeStyle;html=1;endArrow=block;elbow=vertical;startArrow=none;endFill=1;strokeColor=#545B64;rounded=0;" edge="1" parent="roTiI-cVfTf1T6BizycE-7" source="roTiI-cVfTf1T6BizycE-10" target="roTiI-cVfTf1T6BizycE-12">
          <mxGeometry width="100" relative="1" as="geometry">
            <mxPoint x="-42.75862068965517" y="93.46365302382408" as="sourcePoint" />
            <mxPoint x="64.13793103448275" y="93.46365302382408" as="targetPoint" />
          </mxGeometry>
        </mxCell>
        <mxCell id="roTiI-cVfTf1T6BizycE-14" value="" style="edgeStyle=orthogonalEdgeStyle;html=1;endArrow=block;elbow=vertical;startArrow=none;endFill=1;strokeColor=#545B64;rounded=0;" edge="1" parent="roTiI-cVfTf1T6BizycE-7" source="roTiI-cVfTf1T6BizycE-12" target="roTiI-cVfTf1T6BizycE-11">
          <mxGeometry width="100" relative="1" as="geometry">
            <mxPoint x="-42.75862068965517" y="93.46365302382408" as="sourcePoint" />
            <mxPoint x="64.13793103448275" y="93.46365302382408" as="targetPoint" />
          </mxGeometry>
        </mxCell>
        <mxCell id="roTiI-cVfTf1T6BizycE-15" value="" style="sketch=0;outlineConnect=0;fontColor=#232F3E;gradientColor=none;fillColor=#7AA116;strokeColor=none;dashed=0;verticalLabelPosition=bottom;verticalAlign=top;align=center;html=1;fontSize=12;fontStyle=0;aspect=fixed;pointerEvents=1;shape=mxgraph.aws4.bucket_with_objects;" vertex="1" parent="roTiI-cVfTf1T6BizycE-7">
          <mxGeometry x="213.79" y="103.85" width="34.76" height="36.15" as="geometry" />
        </mxCell>
        <mxCell id="roTiI-cVfTf1T6BizycE-16" value="" style="edgeStyle=orthogonalEdgeStyle;html=1;endArrow=block;elbow=vertical;startArrow=none;endFill=1;strokeColor=#545B64;rounded=0;" edge="1" parent="roTiI-cVfTf1T6BizycE-7" source="roTiI-cVfTf1T6BizycE-11" target="roTiI-cVfTf1T6BizycE-15">
          <mxGeometry width="100" relative="1" as="geometry">
            <mxPoint x="-40" y="93.46365302382408" as="sourcePoint" />
            <mxPoint x="60" y="93.46365302382408" as="targetPoint" />
          </mxGeometry>
        </mxCell>
        <mxCell id="roTiI-cVfTf1T6BizycE-17" value="" style="outlineConnect=0;dashed=0;verticalLabelPosition=bottom;verticalAlign=top;align=center;html=1;shape=mxgraph.aws3.android;fillColor=#FFD44F;gradientColor=none;" vertex="1" parent="roTiI-cVfTf1T6BizycE-7">
          <mxGeometry x="250" y="31.15455100794136" width="43.5" height="45.693341478314" as="geometry" />
        </mxCell>
        <mxCell id="roTiI-cVfTf1T6BizycE-18" value="" style="edgeStyle=orthogonalEdgeStyle;html=1;endArrow=block;elbow=vertical;startArrow=none;endFill=1;strokeColor=#545B64;rounded=0;entryX=0;entryY=0.5;entryDx=0;entryDy=0;entryPerimeter=0;" edge="1" parent="roTiI-cVfTf1T6BizycE-7" source="roTiI-cVfTf1T6BizycE-15" target="roTiI-cVfTf1T6BizycE-17">
          <mxGeometry width="100" relative="1" as="geometry">
            <mxPoint x="-40" y="93.46365302382408" as="sourcePoint" />
            <mxPoint x="60" y="93.46365302382408" as="targetPoint" />
          </mxGeometry>
        </mxCell>
        <mxCell id="roTiI-cVfTf1T6BizycE-29" value="Transformed data" style="text;strokeColor=none;align=center;fillColor=none;html=1;verticalAlign=middle;whiteSpace=wrap;rounded=0;" vertex="1" parent="roTiI-cVfTf1T6BizycE-7">
          <mxGeometry x="77.17000000000002" y="139.99954184483812" width="60" height="20.250458155161883" as="geometry" />
        </mxCell>
        <mxCell id="roTiI-cVfTf1T6BizycE-30" value="presentation" style="text;strokeColor=none;align=center;fillColor=none;html=1;verticalAlign=middle;whiteSpace=wrap;rounded=0;" vertex="1" parent="roTiI-cVfTf1T6BizycE-7">
          <mxGeometry x="200.43" y="139.99954184483812" width="60" height="20.250458155161883" as="geometry" />
        </mxCell>
        <mxCell id="roTiI-cVfTf1T6BizycE-45" value="Python Script" style="text;strokeColor=none;align=center;fillColor=none;html=1;verticalAlign=middle;whiteSpace=wrap;rounded=0;" vertex="1" parent="roTiI-cVfTf1T6BizycE-7">
          <mxGeometry x="225.88" y="10.9" width="91.75" height="20.25" as="geometry" />
        </mxCell>
        <mxCell id="roTiI-cVfTf1T6BizycE-19" value="" style="outlineConnect=0;dashed=0;verticalLabelPosition=bottom;verticalAlign=top;align=center;html=1;shape=mxgraph.aws3.dynamo_db;fillColor=#2E73B8;gradientColor=none;" vertex="1" parent="1">
          <mxGeometry x="694" y="190.5" width="52" height="52.6" as="geometry" />
        </mxCell>
        <mxCell id="roTiI-cVfTf1T6BizycE-20" value="" style="edgeStyle=orthogonalEdgeStyle;html=1;endArrow=block;elbow=vertical;startArrow=none;endFill=1;strokeColor=#545B64;rounded=0;entryX=0;entryY=0.5;entryDx=0;entryDy=0;entryPerimeter=0;" edge="1" parent="1" source="roTiI-cVfTf1T6BizycE-5" target="roTiI-cVfTf1T6BizycE-6">
          <mxGeometry width="100" relative="1" as="geometry">
            <mxPoint x="280" y="230" as="sourcePoint" />
            <mxPoint x="380" y="230" as="targetPoint" />
          </mxGeometry>
        </mxCell>
        <mxCell id="roTiI-cVfTf1T6BizycE-21" value="" style="edgeStyle=orthogonalEdgeStyle;html=1;endArrow=block;elbow=vertical;startArrow=none;endFill=1;strokeColor=#545B64;rounded=0;exitX=1;exitY=0.5;exitDx=0;exitDy=0;exitPerimeter=0;entryX=0.007;entryY=0.394;entryDx=0;entryDy=0;entryPerimeter=0;" edge="1" parent="1" source="roTiI-cVfTf1T6BizycE-6" target="roTiI-cVfTf1T6BizycE-8">
          <mxGeometry width="100" relative="1" as="geometry">
            <mxPoint x="280" y="230" as="sourcePoint" />
            <mxPoint x="380" y="230" as="targetPoint" />
          </mxGeometry>
        </mxCell>
        <mxCell id="roTiI-cVfTf1T6BizycE-22" value="Data Source" style="text;strokeColor=none;align=center;fillColor=none;html=1;verticalAlign=middle;whiteSpace=wrap;rounded=0;" vertex="1" parent="1">
          <mxGeometry x="43.75" y="90" width="75" height="30" as="geometry" />
        </mxCell>
        <mxCell id="roTiI-cVfTf1T6BizycE-23" value="Event Notification" style="text;strokeColor=none;align=center;fillColor=none;html=1;verticalAlign=middle;whiteSpace=wrap;rounded=0;" vertex="1" parent="1">
          <mxGeometry x="161.25" y="90" width="97.5" height="30" as="geometry" />
        </mxCell>
        <mxCell id="roTiI-cVfTf1T6BizycE-24" value="Data Processing" style="text;strokeColor=none;align=center;fillColor=none;html=1;verticalAlign=middle;whiteSpace=wrap;rounded=0;" vertex="1" parent="1">
          <mxGeometry x="416.25" y="90" width="97.5" height="30" as="geometry" />
        </mxCell>
        <mxCell id="roTiI-cVfTf1T6BizycE-25" value="Target" style="text;strokeColor=none;align=center;fillColor=none;html=1;verticalAlign=middle;whiteSpace=wrap;rounded=0;" vertex="1" parent="1">
          <mxGeometry x="672.5" y="90" width="97.5" height="30" as="geometry" />
        </mxCell>
        <mxCell id="roTiI-cVfTf1T6BizycE-26" value="" style="edgeStyle=orthogonalEdgeStyle;html=1;endArrow=block;elbow=vertical;startArrow=none;endFill=1;strokeColor=#545B64;rounded=0;exitX=1;exitY=0.5;exitDx=0;exitDy=0;exitPerimeter=0;" edge="1" parent="1" source="roTiI-cVfTf1T6BizycE-17" target="roTiI-cVfTf1T6BizycE-19">
          <mxGeometry width="100" relative="1" as="geometry">
            <mxPoint x="280" y="230" as="sourcePoint" />
            <mxPoint x="380" y="230" as="targetPoint" />
          </mxGeometry>
        </mxCell>
        <mxCell id="roTiI-cVfTf1T6BizycE-27" value="raw data" style="text;strokeColor=none;align=center;fillColor=none;html=1;verticalAlign=middle;whiteSpace=wrap;rounded=0;" vertex="1" parent="1">
          <mxGeometry x="55" y="234.2" width="60" height="30" as="geometry" />
        </mxCell>
        <mxCell id="roTiI-cVfTf1T6BizycE-28" value="SQS" style="text;strokeColor=none;align=center;fillColor=none;html=1;verticalAlign=middle;whiteSpace=wrap;rounded=0;" vertex="1" parent="1">
          <mxGeometry x="180.5" y="249.5" width="60" height="30" as="geometry" />
        </mxCell>
        <mxCell id="roTiI-cVfTf1T6BizycE-46" value="DynamoDB" style="text;strokeColor=none;align=center;fillColor=none;html=1;verticalAlign=middle;whiteSpace=wrap;rounded=0;" vertex="1" parent="1">
          <mxGeometry x="670" y="251.8" width="91.75" height="20.25" as="geometry" />
        </mxCell>
      </root>
    </mxGraphModel>
  </diagram>
</mxfile>
